<?xml version="1.0" standalone="no"?>
<!DOCTYPE svg PUBLIC "-//W3C//DTD SVG 20010904//EN"
 "http://www.w3.org/TR/2001/REC-SVG-20010904/DTD/svg10.dtd">
<svg version="1.0" xmlns="http://www.w3.org/2000/svg"
 width="380.000000pt" height="380.000000pt" viewBox="0 0 380.000000 380.000000"
 preserveAspectRatio="xMidYMid meet">
<metadata>
Created by potrace 1.14, written by Peter Selinger 2001-2017
</metadata>
<g transform="translate(0.000000,380.000000) scale(0.100000,-0.100000)"
fill="#000000" stroke="none">
<path d="M328 3497 c-14 -12 -31 -32 -37 -44 -14 -29 -16 -3069 -1 -3107 5
-14 24 -35 42 -46 33 -20 48 -20 1582 -18 l1548 3 29 35 29 34 0 1541 c0 1522
0 1540 -20 1573 -11 18 -32 37 -46 42 -16 6 -588 10 -1562 10 l-1537 0 -27
-23z m1022 -607 l0 -110 -65 0 -65 0 0 110 0 110 65 0 65 0 0 -110z m240 0 l0
-110 -60 0 -60 0 0 110 0 110 60 0 60 0 0 -110z m250 0 l0 -110 -65 0 -65 0 0
110 0 110 65 0 65 0 0 -110z m250 0 l0 -110 -65 0 -65 0 0 110 0 110 65 0 65
0 0 -110z m240 0 l0 -110 -60 0 -60 0 0 110 0 110 60 0 60 0 0 -110z m250 0
l0 -110 -65 0 -65 0 0 110 0 110 65 0 65 0 0 -110z m-1560 -375 l0 -65 -110 0
-110 0 0 65 0 65 110 0 110 0 0 -65z m1980 0 l0 -65 -110 0 -110 0 0 65 0 65
110 0 110 0 0 -65z m-1980 -245 l0 -60 -110 0 -110 0 0 60 0 60 110 0 110 0 0
-60z m1980 0 l0 -60 -110 0 -110 0 0 60 0 60 110 0 110 0 0 -60z m-1980 -245
l0 -65 -110 0 -110 0 0 65 0 65 110 0 110 0 0 -65z m1980 0 l0 -65 -110 0
-110 0 0 65 0 65 110 0 110 0 0 -65z m-1980 -250 l0 -65 -110 0 -110 0 0 65 0
65 110 0 110 0 0 -65z m1980 0 l0 -65 -110 0 -110 0 0 65 0 65 110 0 110 0 0
-65z m-1980 -245 l0 -60 -110 0 -110 0 0 60 0 60 110 0 110 0 0 -60z m1980 0
l0 -60 -110 0 -110 0 0 60 0 60 110 0 110 0 0 -60z m-1980 -245 l0 -65 -110 0
-110 0 0 65 0 65 110 0 110 0 0 -65z m1980 0 l0 -65 -110 0 -110 0 0 65 0 65
110 0 110 0 0 -65z m-1650 -375 l0 -110 -65 0 -65 0 0 110 0 110 65 0 65 0 0
-110z m240 0 l0 -110 -60 0 -60 0 0 110 0 110 60 0 60 0 0 -110z m250 0 l0
-110 -65 0 -65 0 0 110 0 110 65 0 65 0 0 -110z m250 0 l0 -110 -65 0 -65 0 0
110 0 110 65 0 65 0 0 -110z m240 0 l0 -110 -60 0 -60 0 0 110 0 110 60 0 60
0 0 -110z m250 0 l0 -110 -65 0 -65 0 0 110 0 110 65 0 65 0 0 -110z"/>
</g>
</svg>
